<svg xmlns="http://www.w3.org/2000/svg" viewBox="0 0 512 512" width="512" height="512">
  <defs>
    <linearGradient id="bg" x1="0" y1="0" x2="1" y2="1">
      <stop offset="0" stop-color="#8b3bff"/>
      <stop offset="1" stop-color="#2f7bff"/>
    </linearGradient>
  </defs>
  <rect width="512" height="512" rx="116" fill="url(#bg)"/>
  <!-- circuit road -->
  <path d="M186 372 C108 372 106 248 176 224 C248 200 222 136 308 138 C388 140 416 190 410 252 C405 308 354 332 298 330 C246 328 250 390 186 372 Z"
        fill="none" stroke="#1b1c21" stroke-width="46" stroke-linejoin="round"/>
  <path d="M186 372 C108 372 106 248 176 224 C248 200 222 136 308 138 C388 140 416 190 410 252 C405 308 354 332 298 330 C246 328 250 390 186 372 Z"
        fill="none" stroke="#eceef2" stroke-width="6" stroke-linejoin="round"/>
  <!-- red/white kerb on the top-left curve -->
  <path d="M176 224 C248 200 222 136 308 138" fill="none" stroke="#e23b3b" stroke-width="13" stroke-dasharray="15 15"/>
  <path d="M176 224 C248 200 222 136 308 138" fill="none" stroke="#f2f2f4" stroke-width="13" stroke-dasharray="15 15" stroke-dashoffset="15"/>
  <!-- yellow sausage accent + start/finish dot -->
  <path d="M410 252 C405 308 354 332 298 330" fill="none" stroke="#e8b200" stroke-width="13"/>
  <circle cx="186" cy="372" r="17" fill="#f2f2f4"/>
</svg>
